<svg id="Capa_1" enable-background="new 0 0 480 480" height="512" viewBox="0 0 480 480" width="512" xmlns="http://www.w3.org/2000/svg"><path d="m272.276 65.482-1.9 15.887c9.717 1.164 19.331 3.069 28.758 5.7l-11.3 30.122 14.98 5.62 11.553-30.8c98.025 36.563 148.762 144.849 114.124 243.57l-22.381-35.821c-.846-1.353-2.077-2.422-3.535-3.071l-16-7.111-6.5 14.621 13.763 6.117 27.167 43.474c-10.164 21.475-24.206 40.889-41.42 57.264l-70.853-64.954c-1.702-1.56-3.995-2.309-6.29-2.054l-72 8c-3.101.345-5.719 2.461-6.706 5.421l-6.176 18.533h-42.234c-2.675 0-5.172 1.337-6.656 3.562l-32.57 48.856c-12.202-8.707-23.352-18.801-33.225-30.08l21.251-15.938c1.302-.976 2.275-2.326 2.79-3.87l7.132-21.4 21.716-14.478-8.876-13.312-24 16c-1.48.987-2.589 2.438-3.152 4.126l-7.21 21.634-19.69 14.768c-41.003-55.56-49.009-128.86-20.965-191.961.571-1.281 1.161-2.55 1.758-3.815l34.119 17.063 7.156-14.31-33.851-16.93c9.601-16.601 21.64-31.667 35.714-44.694l-10.882-11.729c-42.494 39.322-66.624 94.612-66.559 152.508 0 114.691 93.309 208 208 208s208-93.309 208-208c0-105.254-78.694-194.038-183.05-206.518zm-122.768 371.668 30.1-45.15h43.718c3.444 0 6.501-2.203 7.59-5.47l6.381-19.144 63.3-7.034 66.868 61.3c-62.297 50.151-149.191 56.331-217.958 15.5z"/><path d="m127.326 46.624v265.376c0 4.418 3.582 8 8 8h224c4.418 0 8-3.582 8-8v-129.376c12.495-4.424 19.038-18.139 14.614-30.634-3.392-9.581-12.451-15.986-22.614-15.99h-144c-13.255.005-23.996 10.755-23.99 24.01.004 10.163 6.41 19.222 15.99 22.614v121.376h-64v-256h96v72h16v-73.376c12.495-4.424 19.038-18.139 14.614-30.634-3.391-9.58-12.45-15.986-22.614-15.99h-112c-13.255.005-23.996 10.755-23.99 24.01.004 10.163 6.41 19.222 15.99 22.614zm88 105.376h144c4.418 0 8 3.582 8 8s-3.582 8-8 8h-144c-4.418 0-8-3.582-8-8s3.582-8 8-8zm8 32h128v120h-128zm-88-168h112c4.418 0 8 3.582 8 8s-3.582 8-8 8h-112c-4.418 0-8-3.582-8-8s3.582-8 8-8z"/><path d="m167.326 72h16v16h-16z"/><path d="m199.326 72h16v16h-16z"/><path d="m167.326 104h16v16h-16z"/><path d="m199.326 104h16v16h-16z"/><path d="m167.326 136h16v16h-16z"/><path d="m279.326 200h16v16h-16z"/><path d="m311.326 200h16v16h-16z"/><path d="m279.326 232h16v16h-16z"/><path d="m311.326 232h16v16h-16z"/><path d="m279.326 264h16v16h-16z"/><path d="m247.326 200h16v16h-16z"/><path d="m247.326 232h16v16h-16z"/><path d="m247.326 264h16v16h-16z"/><path d="m311.326 264h16v16h-16z"/><path d="m167.326 168h16v16h-16z"/><path d="m167.326 200h16v16h-16z"/><path d="m167.326 232h16v16h-16z"/><path d="m167.326 264h16v16h-16z"/><path d="m23.326 272c-.005-15.575 1.604-31.109 4.8-46.353l-15.658-3.294c-3.423 16.327-5.146 32.965-5.142 49.647-.172 73.38 33.393 142.767 91.03 188.182l9.94-12.539c-53.799-42.388-85.129-107.152-84.97-175.643z"/><path d="m112.556 470.616c4.7 3.194 9.574 6.26 14.49 9.113l8.031-13.839c-4.589-2.662-9.14-5.524-13.524-8.506z"/><path d="m338.362 49.87-6.072 14.8c58.146 23.916 103.615 71.098 125.364 130.089l15.02-5.518c-23.303-63.2-72.016-113.748-134.312-139.371z"/></svg>